<svg xmlns="http://www.w3.org/2000/svg" xmlns:xlink="http://www.w3.org/1999/xlink" viewBox="0 0 40 40"><path fill="#c2e8ff" d="M35.7,15.9l-0.4-0.1l0.1-0.4c0.1-0.3,0.1-0.6,0.1-0.9c0-3.3-2.7-6-6-6c-0.7,0-1.5,0.1-2.2,0.4l-0.4,0.2l-0.2-0.4c-1.3-2.6-3.8-4.2-6.7-4.2c-3.9,0-7.1,2.9-7.5,6.8v0.3l-0.3,0.1c-1.8,0.5-3.1,1.9-3.5,3.7l-0.1,0.5L8,15.7c-0.5-0.1-1-0.2-1.5-0.2c-3.3,0-6,2.7-6,6s2.7,6,6,6H16V28h8v-0.5h9.5c3.3,0,6-2.7,6-6C39.5,19,38,16.9,35.7,15.9z"/><path fill="none" stroke="#7496c4" stroke-linecap="round" d="M23,27.5c6.6,0,10.3,0,10.5,0c3.3,0,6-2.7,6-6c0-2.7-1.7-4.9-4.1-5.7c0.1-0.4,0.1-0.9,0.1-1.3c0-3.3-2.7-6-6-6c-0.9,0-1.8,0.2-2.6,0.6c-1.1-2.7-3.8-4.6-6.9-4.6c-4,0-7.3,3.1-7.5,7.1c-2.1,0.4-3.7,2.1-4,4.3c-0.6-0.2-1.3-0.4-2.1-0.4c-3.3,0-6,2.7-6,6s2.7,6,6,6c0,0,10.2,0,17,0"/></svg>