<svg id="illust" xmlns="http://www.w3.org/2000/svg" width="379" height="263.69" viewBox="0 0 379 263.69">
  <ellipse id="Ellipse_1" data-name="Ellipse 1" cx="75.513" cy="5.735" rx="75.513" ry="5.735" transform="translate(0 252.22)" fill="#e6e6e6"/>
  <path id="Path_1" data-name="Path 1" d="M154.98,141.733c13.142-5.59,29.51-2.048,45.495.41.149-2.977,1.952-6.6.063-8.676-2.295-2.523-2.083-5.174-.7-7.84,3.531-6.818-1.528-14.072-6.636-20.1a11.312,11.312,0,0,0-9.442-3.963l-9.462.676a11.331,11.331,0,0,0-10.062,8.1h0c-2.259,3.073-3.469,6.137-2.707,9.185-3.384,2.313-3.953,5.1-2.432,8.251a4.743,4.743,0,0,1-.059,5.786,26.712,26.712,0,0,0-3.972,7.889Z" transform="translate(-97.259 -83.224)" fill="#2f2e41"/>
  <path id="Path_2" data-name="Path 2" d="M467.278,311.18H199.437a8.981,8.981,0,0,1-8.981-8.981h0q145.639-16.926,285.8,0h0a8.981,8.981,0,0,1-8.981,8.981Z" transform="translate(-97.259 -83.224)" fill="#2f2e41"/>
  <path id="Path_3" data-name="Path 3" d="M476.259,302.727l-285.8-.528,33.124-55.734.158-.264V123.369a11.352,11.352,0,0,1,11.354-11.353H430.039a11.352,11.352,0,0,1,11.353,11.354V247.046Z" transform="translate(-97.259 -83.224)" fill="#3f3d56"/>
  <path id="Path_4" data-name="Path 4" d="M234.832,119.94a3.7,3.7,0,0,0-3.7,3.7v112a3.7,3.7,0,0,0,3.7,3.7H431.883a3.7,3.7,0,0,0,3.7-3.7v-112a3.7,3.7,0,0,0-3.7-3.7Z" transform="translate(-97.259 -83.224)" fill="#fff"/>
  <path id="Path_5" data-name="Path 5" d="M235.658,254.125a1.589,1.589,0,0,0-1.44.922l-10.206,22.188a1.585,1.585,0,0,0,1.44,2.247H440.086a1.585,1.585,0,0,0,1.417-2.294L430.41,255a1.577,1.577,0,0,0-1.417-.876Z" transform="translate(-97.259 -83.224)" fill="#2f2e41"/>
  <circle id="Ellipse_2" data-name="Ellipse 2" cx="2.377" cy="2.377" r="2.377" transform="translate(232.929 30.112)" fill="#fff"/>
  <path id="Path_6" data-name="Path 6" d="M311.468,283.709a1.587,1.587,0,0,0-1.53,1.173l-2.56,9.509a1.585,1.585,0,0,0,1.53,2H357.6a1.584,1.584,0,0,0,1.5-2.1l-3.291-9.509a1.586,1.586,0,0,0-1.5-1.066Z" transform="translate(-97.259 -83.224)" fill="#2f2e41"/>
  <path id="Path_7" data-name="Path 7" d="M344.133,161.128v2.113H126.32l.164-.264v-1.849Z" fill="#2f2e41"/>
  <circle id="Ellipse_3" data-name="Ellipse 3" cx="36.98" cy="36.98" r="36.98" transform="translate(301.078 0)" fill="#f90"/>
  <path id="Path_8" data-name="Path 8" d="M450.637,136.317H420a2.115,2.115,0,0,1-2.113-2.113v-18.49A2.115,2.115,0,0,1,420,113.6h30.641a2.115,2.115,0,0,1,2.113,2.113V134.2a2.115,2.115,0,0,1-2.113,2.113ZM420,115.714V134.2h30.642l0-18.49Z" transform="translate(-97.259 -83.224)" fill="#fff"/>
  <path id="Path_9" data-name="Path 9" d="M444.826,115.714H425.808v-8.453c0-6.122,4-10.566,9.509-10.566s9.509,4.443,9.509,10.566ZM427.921,113.6h14.792v-6.34c0-4.977-3.041-8.453-7.4-8.453s-7.4,3.476-7.4,8.453Z" transform="translate(-97.259 -83.224)" fill="#fff"/>
  <circle id="Ellipse_4" data-name="Ellipse 4" cx="2.113" cy="2.113" r="2.113" transform="translate(335.945 39.093)" fill="#fff"/>
  <path id="Path_10" data-name="Path 10" d="M409.5,201.345H257.213a2.823,2.823,0,0,1-2.82-2.82V160.749a2.823,2.823,0,0,1,2.82-2.82H409.5a2.823,2.823,0,0,1,2.82,2.82v37.776A2.823,2.823,0,0,1,409.5,201.345ZM257.213,159.057a1.694,1.694,0,0,0-1.692,1.692v37.776a1.694,1.694,0,0,0,1.692,1.692H409.5a1.694,1.694,0,0,0,1.692-1.692V160.749a1.694,1.694,0,0,0-1.692-1.692Z" transform="translate(-97.259 -83.224)" fill="#e6e6e6"/>
  <circle id="Ellipse_5" data-name="Ellipse 5" cx="11.488" cy="11.488" r="11.488" transform="translate(172.129 83.475)" fill="#e6e6e6"/>
  <path id="Path_11" data-name="Path 11" d="M307.407,170.528a1.915,1.915,0,1,0,0,3.829h90.261a1.915,1.915,0,0,0,0-3.829Z" transform="translate(-97.259 -83.224)" fill="#e6e6e6"/>
  <path id="Path_12" data-name="Path 12" d="M307.407,182.017a1.915,1.915,0,1,0,0,3.829h38.84a1.915,1.915,0,1,0,0-3.829Z" transform="translate(-97.259 -83.224)" fill="#e6e6e6"/>
  <path id="Path_13" data-name="Path 13" d="M223.2,182.791l-28.152,14.967-.356-12.472a83.373,83.373,0,0,0,26.014-8.552l2.944-7.274a4.931,4.931,0,0,1,8.381-1.28h0a4.931,4.931,0,0,1-.434,6.724Z" transform="translate(-97.259 -83.224)" fill="#ffb8b8"/>
  <path id="Path_14" data-name="Path 14" d="M154.419,269.2h0a5.532,5.532,0,0,1,.7-4.475l6.184-9.491a10.807,10.807,0,0,1,14.02-3.7h0c-2.6,4.424-2.237,8.3.9,11.678a56.218,56.218,0,0,0-13.352,9.1,5.532,5.532,0,0,1-8.452-3.115Z" transform="translate(-97.259 -83.224)" fill="#2f2e41"/>
  <path id="Path_15" data-name="Path 15" d="M224.487,256.794h0a10.612,10.612,0,0,1-9.019,5.152l-41.083.311L172.6,251.923l18.174-5.345-15.323-11.76,16.748-19.6,30.42,28.353a10.612,10.612,0,0,1,1.864,13.222Z" transform="translate(-97.259 -83.224)" fill="#2f2e41"/>
  <path id="Path_16" data-name="Path 16" d="M167.971,327.469h-9.622c-8.639-59.215-17.432-118.595,8.552-140.758l30.646,4.989-3.92,26.014-17.1,19.6Z" transform="translate(-97.259 -83.224)" fill="#2f2e41"/>
  <path id="Path_17" data-name="Path 17" d="M176.428,340.883h0a5.532,5.532,0,0,1-4.475-.7l-10.447-1.4a10.807,10.807,0,0,1-3.7-14.02h0c4.424,2.6,8.305,2.236,11.678-.9,2.383,4.812,6.309,4.518,10.059,8.572a5.531,5.531,0,0,1-3.115,8.453Z" transform="translate(-97.259 -83.224)" fill="#2f2e41"/>
  <path id="Path_18" data-name="Path 18" d="M190.777,147.156,172.96,142.88c2.959-6.057,3.2-12.8,1.782-19.956l12.116-.356A93.02,93.02,0,0,0,190.777,147.156Z" transform="translate(-97.259 -83.224)" fill="#ffb8b8"/>
  <path id="Path_19" data-name="Path 19" d="M195.674,202.429c-12.97,8.838-22.135.3-29.129-12.868.972-8.059-.6-17.7-3.516-28.182a19.183,19.183,0,0,1,11.712-23.132h0l15.323,6.414c13.011,10.605,15.572,22.093,10.69,34.21Z" transform="translate(-97.259 -83.224)" fill="#ff9f10"/>
  <path id="Path_20" data-name="Path 20" d="M158.349,156.065,144.1,163.548l25.3,14.967,3.52,8.684a4.606,4.606,0,0,1-2.767,6.085h0a4.606,4.606,0,0,1-6.1-4.084l-.356-6.052-32.157-10.612a7.519,7.519,0,0,1-4.718-4.594h0a7.519,7.519,0,0,1,2.821-8.747l25.858-17.74Z" transform="translate(-97.259 -83.224)" fill="#ffb8b8"/>
  <path id="Path_21" data-name="Path 21" d="M172.6,157.49c-5.945-2.605-11.351.225-18.174,2.494L153.36,141.1c6.775-3.611,13.235-4.585,19.243-1.782Z" transform="translate(-97.259 -83.224)" fill="#f90"/>
  <circle id="Ellipse_6" data-name="Ellipse 6" cx="11.376" cy="11.376" r="11.376" transform="translate(71.079 25.947)" fill="#ffb8b8"/>
  <path id="Path_22" data-name="Path 22" d="M193.323,119.112c-11.263,1.1-19.845-.739-25.33-5.984V108.9h24.375Z" transform="translate(-97.259 -83.224)" fill="#2f2e41"/>
</svg>
