<svg xmlns="http://www.w3.org/2000/svg" xmlns:xlink="http://www.w3.org/1999/xlink" viewBox="0 0 24 24" fill="#5B5B5B">
  <path d="M12 1.25C11.80825 1.25 11.617203 1.3242031 11.470703 1.4707031L9.2207031 3.7207031C9.0057031 3.9347031 8.9406406 4.2561094 9.0566406 4.5371094C9.1726406 4.8181094 9.447 5 9.75 5L11 5L11 7L4 7 A 1.0001 1.0001 0 1 0 4 9L20 9 A 1.0001 1.0001 0 1 0 20 7L13 7L13 5L14.25 5C14.553 5 14.827359 4.8181094 14.943359 4.5371094C14.981359 4.4441094 15 4.347 15 4.25C15 4.055 14.923297 3.8637031 14.779297 3.7207031L12.529297 1.4707031C12.382797 1.3242031 12.19175 1.25 12 1.25 z M 4 11 A 1.0001 1.0001 0 1 0 4 13L20 13 A 1.0001 1.0001 0 1 0 20 11L4 11 z M 4 15 A 1.0001 1.0001 0 1 0 4 17L11 17L11 19L9.75 19C9.447 19 9.1726406 19.181891 9.0566406 19.462891C9.0186406 19.555891 9 19.653 9 19.75C9 19.945 9.0767031 20.136297 9.2207031 20.279297L11.470703 22.529297C11.763703 22.822297 12.236297 22.822297 12.529297 22.529297L14.779297 20.279297C14.994297 20.064297 15.058359 19.743891 14.943359 19.462891C14.827359 19.181891 14.553 19 14.25 19L13 19L13 17L20 17 A 1.0001 1.0001 0 1 0 20 15L4 15 z" fill="#5B5B5B" />
</svg>