<svg xmlns="http://www.w3.org/2000/svg" xmlns:xlink="http://www.w3.org/1999/xlink" viewBox="0 0 30 30" fill="#5B5B5B">
  <path d="M7 2C5.895 2 5 2.895 5 4L5 18C5 19.105 5.895 20 7 20L23 20C24.105 20 25 19.105 25 18L25 4C25 2.895 24.105 2 23 2L7 2 z M 16.5 6C18.433 6 20 7.567 20 9.5C20 9.727 19.974594 9.9471094 19.933594 10.162109C21.130594 10.556109 22 11.671 22 13C22 14.657 20.657 16 19 16L11 16C9.343 16 8 14.657 8 13C8 11.684 8.8532031 10.577828 10.033203 10.173828C10.194203 8.9488281 11.231 8 12.5 8C12.773 8 13.030391 8.0547656 13.275391 8.1347656C13.807391 6.8797656 15.051 6 16.5 6 z M 5 21.443359L5 26C5 27.105 5.895 28 7 28L23 28C24.105 28 25 27.105 25 26L25 21.443359C24.409 21.787359 23.732 22 23 22L7 22C6.268 22 5.591 21.787359 5 21.443359 z M 22 24C22.552 24 23 24.448 23 25C23 25.552 22.552 26 22 26C21.448 26 21 25.552 21 25C21 24.448 21.448 24 22 24 z" fill="#5B5B5B" />
</svg>