<svg xmlns="http://www.w3.org/2000/svg" xmlns:xlink="http://www.w3.org/1999/xlink" viewBox="0 0 50 50" fill="#5B5B5B">
  <path d="M25 2C12.316406 2 2 12.316406 2 25C2 37.683594 12.316406 48 25 48C37.683594 48 48 37.683594 48 25C48 12.316406 37.683594 2 25 2 Z M 32.707031 25.707031L22.707031 35.707031C22.511719 35.902344 22.257813 36 22 36C21.742188 36 21.488281 35.902344 21.292969 35.707031C20.902344 35.316406 20.902344 34.683594 21.292969 34.292969L30.585938 25L21.292969 15.707031C20.902344 15.316406 20.902344 14.683594 21.292969 14.292969C21.683594 13.902344 22.316406 13.902344 22.707031 14.292969L32.707031 24.292969C33.097656 24.683594 33.097656 25.316406 32.707031 25.707031Z" fill="#5B5B5B" />
</svg>