<svg xmlns="http://www.w3.org/2000/svg" width="39.1" height="23.5" viewBox="0 0 39.1 23.5">
  <g id="download_from_cloud_40px" transform="translate(-0.4 -4.5)">
    <path id="Path_28" data-name="Path 28" d="M35.7,15.9l-.4-.1.1-.4a2.769,2.769,0,0,0,.1-.9,6.018,6.018,0,0,0-6-6,5.7,5.7,0,0,0-2.2.4l-.4.2-.2-.4A7.4,7.4,0,0,0,20,4.5a7.5,7.5,0,0,0-7.5,6.8v.3l-.3.1a4.884,4.884,0,0,0-3.5,3.7l-.1.5L8,15.7a7.719,7.719,0,0,0-1.5-.2,6,6,0,0,0,0,12H16V28h8v-.5h9.5a6.011,6.011,0,0,0,2.2-11.6Z" fill="#f80"/>
    <path id="Path_29" data-name="Path 29" d="M23,27.5H33.5a6.018,6.018,0,0,0,6-6,5.947,5.947,0,0,0-4.1-5.7,5.7,5.7,0,0,0,.1-1.3,6.018,6.018,0,0,0-6-6,5.834,5.834,0,0,0-2.6.6,7.5,7.5,0,0,0-14.4,2.5,5,5,0,0,0-4,4.3,6.537,6.537,0,0,0-2.1-.4,6,6,0,1,0,0,12h17" fill="none"/>
  </g>
</svg>
