<svg xmlns="http://www.w3.org/2000/svg" width="515.233" height="208.901" viewBox="0 0 515.233 208.901">
  <path id="Union_1" data-name="Union 1" d="M-988.82-784.034l10.268-10.29,3.944,3.945-6.338,6.338,12.062,12.054,12.047-12.047-6.331-6.338,3.944-3.945,10.275,10.282L-968.884-764.1Zm-103,0,10.267-10.29,3.945,3.945-6.338,6.338,12.061,12.054,12.047-12.047-6.332-6.338,3.945-3.945,10.274,10.282-19.935,19.935Zm-103,0,10.268-10.29,3.944,3.945-6.338,6.338,12.062,12.054,12.047-12.047-6.331-6.338,3.944-3.945,10.275,10.282-19.935,19.935Zm-103,0,10.268-10.29,3.944,3.945-6.338,6.338,12.061,12.054,12.047-12.047-6.331-6.338,3.944-3.945,10.275,10.282-19.936,19.935Zm-103,0,10.267-10.289,3.945,3.944-6.339,6.338,12.062,12.054,12.047-12.047-6.331-6.338,3.945-3.944,10.274,10.282-19.935,19.935Zm456.133,9.377,2.936-2.936,2.935,2.936-2.935,2.935Zm-54,0,2.936-2.936,2.936,2.936-2.936,2.935Zm-49,0,2.935-2.936,2.936,2.936-2.936,2.935Zm-54,0,2.935-2.936,2.936,2.936-2.936,2.935Zm-49,0,2.936-2.936,2.936,2.936-2.936,2.935Zm-54,0,2.936-2.936,2.936,2.936-2.936,2.935Zm-49,0,2.936-2.936,2.935,2.936-2.935,2.935Zm-54,0,2.936-2.936,2.935,2.936-2.935,2.935Zm-49,0,2.935-2.936,2.936,2.936-2.936,2.935Zm-54,0,2.935-2.936,2.936,2.936-2.936,2.935Zm457.342-22.65,19.936-19.935,10.282,10.275-3.944,3.944-6.338-6.331L-945.463-797.3l12.055,12.062,6.338-6.338,3.944,3.944-10.282,10.275Zm-61.933,9.675,3.945-3.944,6.338,6.331L-992.94-797.3l-12.054-12.061-6.338,6.338-3.945-3.944,10.283-10.275,19.935,19.949-19.935,19.936Zm-41.067-9.675,19.935-19.935,10.283,10.275-3.945,3.944-6.338-6.331-12.054,12.054,12.054,12.062,6.338-6.338,3.945,3.944-10.283,10.275Zm-61.933,9.675,3.944-3.944,6.338,6.331,12.055-12.055-12.055-12.061-6.338,6.338-3.944-3.944,10.282-10.275,19.935,19.949-19.935,19.936Zm-41.068-9.675,19.936-19.935,10.281,10.275-3.944,3.944-6.338-6.331-12.055,12.054,12.055,12.062,6.338-6.338,3.944,3.944-10.281,10.275Zm-61.933,9.675,3.945-3.944,6.338,6.331,12.054-12.055-12.054-12.061-6.338,6.338-3.945-3.944,10.282-10.275,19.935,19.949-19.935,19.936Zm-41.067-9.675,19.935-19.935,10.282,10.275-3.945,3.944-6.338-6.331-12.054,12.054,12.054,12.062,6.338-6.338,3.945,3.944-10.282,10.275Zm-61.933,9.675,3.944-3.944,6.338,6.331,12.055-12.055-12.055-12.061-6.338,6.338-3.944-3.944,10.282-10.275,19.936,19.949-19.936,19.936Zm-41.068-9.675,19.936-19.935,10.282,10.275-3.944,3.944-6.338-6.331-12.055,12.054,12.055,12.062,6.338-6.338,3.944,3.944-10.282,10.275Zm-61.933,9.675,3.945-3.944,6.338,6.331,12.054-12.055-12.054-12.061-6.338,6.338-3.945-3.944,10.282-10.275,19.935,19.949-19.935,19.936Zm455.459,4.49,2.935-2.936,2.936,2.936-2.936,2.936Zm-103,0,2.936-2.936,2.935,2.936-2.935,2.936Zm-103,0,2.935-2.936,2.936,2.936-2.936,2.936Zm-103,0,2.936-2.936,2.935,2.936-2.935,2.936Zm-103,0,2.935-2.936,2.936,2.936-2.936,2.936Zm446.574-14.146,2.936-2.936,2.936,2.936-2.936,2.936Zm-103,0,2.936-2.936,2.935,2.936-2.935,2.936Zm-103,0,2.935-2.936,2.936,2.936-2.936,2.936Zm-103,0,2.936-2.936,2.935,2.936-2.935,2.936Zm-103,0,2.935-2.936,2.936,2.936-2.936,2.936Zm428.476-.023,2.936-2.936v5.871Zm-86.262,0,2.935-2.936,2.936,2.936-2.936,2.935Zm-13.918,2.819-.116.116v-.232l-2.7-2.7,2.7-2.7v-.232l.116.116.116-.116v.232l2.7,2.7-2.7,2.7v.232Zm-89.082-2.819,2.936-2.936,2.935,2.936-2.935,2.935Zm-13.918,2.818-.117.117v-.233l-2.7-2.7,2.7-2.7v-.233l.117.117.117-.117v.233l2.7,2.7-2.7,2.7v.233Zm-89.082-2.818,2.935-2.936,2.936,2.936-2.936,2.935Zm-13.918,2.818-.117.117v-.233l-2.7-2.7,2.7-2.7v-.233l.117.117.117-.117v.233l2.7,2.7-2.7,2.7v.233Zm-89.082-2.818,2.936-2.936,2.935,2.936-2.935,2.935Zm-13.918,2.819-.116.116v-.232l-2.7-2.7,2.7-2.7v-.232l.116.116.116-.116v.232l2.7,2.7-2.7,2.7v.232Zm-89.082-2.819,2.935-2.936,2.936,2.936-2.936,2.935Zm-14.035,0v-2.936l2.936,2.936-2.936,2.935Zm461.246-.01,2.936-2.935,2.935,2.935-2.935,2.936Zm-103,0,2.935-2.935,2.936,2.935-2.936,2.936Zm-103,0,2.936-2.935,2.936,2.935-2.936,2.936Zm-103,0,2.935-2.935,2.936,2.935-2.936,2.936Zm-103,0,2.936-2.935,2.936,2.935-2.936,2.936Zm420.665-7.406,6.338-6.338-12.062-12.054-12.054,12.054,6.331,6.338-3.944,3.944-10.275-10.282L-968.884-831l19.935,19.935-10.261,10.282Zm-103,0,6.338-6.338-12.061-12.054-12.054,12.054,6.331,6.338-3.945,3.944-10.274-10.282L-1071.885-831l19.935,19.935-10.26,10.282Zm-103,0,6.338-6.338-12.061-12.054-12.055,12.054,6.331,6.338-3.944,3.944-10.275-10.282L-1174.884-831l19.935,19.935-10.261,10.282Zm-103,0,6.337-6.338-12.061-12.054-12.054,12.054,6.331,6.338-3.945,3.944-10.274-10.282L-1277.885-831l19.936,19.935-10.261,10.282Zm-103,0,6.338-6.338-12.061-12.054-12.055,12.054,6.331,6.338-3.944,3.944-10.274-10.282L-1380.884-831l19.935,19.935-10.261,10.282Zm403.336-7.234,2.936-2.936,2.935,2.936-2.935,2.936Zm-103,0,2.935-2.936,2.936,2.936-2.936,2.936Zm-103,0,2.936-2.936,2.935,2.936-2.935,2.936Zm-103,0,2.935-2.936,2.936,2.936-2.936,2.936Zm-103,0,2.936-2.936,2.936,2.936-2.936,2.936Zm344-19.074,10.267-10.289,3.945,3.944-6.338,6.339,12.061,12.054,12.047-12.047-6.331-6.338,3.945-3.944,10.274,10.282-19.935,19.936Zm-103,0,10.268-10.289,3.944,3.944-6.338,6.339,12.061,12.054,12.047-12.047-6.331-6.338,3.944-3.944,10.275,10.282-19.936,19.936Zm-103,0,10.267-10.289,3.945,3.944-6.338,6.339,12.061,12.054,12.047-12.047-6.331-6.338,3.945-3.944,10.274,10.282-19.935,19.936Zm-103,0,10.268-10.289,3.944,3.944-6.338,6.339,12.062,12.054,12.047-12.047-6.331-6.338,3.944-3.944,10.275,10.282-19.935,19.936Zm353.134,9.377,2.935-2.935,2.936,2.935-2.936,2.936Zm-54,0,2.935-2.935,2.936,2.935-2.936,2.936Zm-49,0,2.936-2.935,2.935,2.935-2.935,2.936Zm-54,0,2.936-2.935,2.935,2.935-2.935,2.936Zm-49,0,2.935-2.935,2.936,2.935-2.936,2.936Zm-54,0,2.935-2.935,2.936,2.935-2.936,2.936Zm-49,0,2.936-2.935,2.936,2.935-2.936,2.936Zm-54,0,2.936-2.935,2.936,2.935-2.936,2.936Zm354.344-22.649,19.935-19.935,10.282,10.274-3.944,3.945-6.338-6.331L-996.462-844.3l12.054,12.061,6.338-6.338,3.944,3.945-10.282,10.274Zm-61.933,9.675,3.944-3.945,6.338,6.331,12.054-12.054-12.054-12.061-6.338,6.338-3.944-3.945,10.281-10.274,19.935,19.949-19.935,19.935Zm-41.068-9.675,19.935-19.935,10.282,10.274-3.944,3.945-6.339-6.331-12.054,12.054,12.054,12.061,6.339-6.338,3.944,3.945-10.282,10.274Zm-61.933,9.675,3.945-3.945,6.337,6.331,12.055-12.054-12.055-12.061-6.337,6.338-3.945-3.945,10.282-10.274,19.936,19.949-19.936,19.935Zm-41.067-9.675,19.935-19.935,10.282,10.274-3.944,3.945-6.338-6.331-12.054,12.054,12.054,12.061,6.338-6.338,3.944,3.945-10.282,10.274Zm-61.933,9.675,3.944-3.945,6.338,6.331,12.054-12.054-12.054-12.061-6.338,6.338-3.944-3.945,10.282-10.274,19.935,19.949-19.935,19.935Zm-41.068-9.675,19.936-19.935,10.282,10.274-3.944,3.945-6.338-6.331-12.055,12.054,12.055,12.061,6.338-6.338,3.944,3.945-10.282,10.274Zm-61.933,9.675,3.945-3.945,6.338,6.331,12.054-12.054-12.054-12.061-6.338,6.338-3.945-3.945,10.282-10.274,19.935,19.949-19.935,19.935Zm352.459,4.49,2.935-2.936,2.936,2.936-2.936,2.935Zm-103,0,2.936-2.936,2.936,2.936-2.936,2.935Zm-103,0,2.936-2.936,2.935,2.936-2.935,2.935Zm-103,0,2.935-2.936,2.936,2.936-2.936,2.935Zm343.574-14.146,2.935-2.936,2.936,2.936-2.936,2.935Zm-103,0,2.936-2.936,2.936,2.936-2.936,2.935Zm-103,0,2.935-2.936,2.936,2.936-2.936,2.935Zm-103,0,2.936-2.936,2.936,2.936-2.936,2.935Zm325.477-.023,2.935-2.935v5.871Zm-86.263,0,2.935-2.936,2.936,2.936-2.936,2.935Zm-13.918,2.818-.117.117v-.233l-2.7-2.7,2.7-2.7v-.233l.117.117.116-.117v.233l2.7,2.7-2.7,2.7v.233Zm-89.083-2.818,2.936-2.936,2.936,2.936-2.936,2.935Zm-13.918,2.819-.116.116v-.232l-2.7-2.7,2.7-2.7v-.232l.116.116.116-.116v.232l2.7,2.7-2.7,2.7v.232Zm-89.082-2.819,2.936-2.936,2.935,2.936-2.935,2.935Zm-13.918,2.818-.117.117v-.233l-2.7-2.7,2.7-2.7v-.233l.117.117.116-.117v.233l2.7,2.7-2.7,2.7v.233Zm-89.082-2.819,2.935-2.935,2.936,2.935-2.936,2.936Zm-14.035,0v-2.935l2.935,2.935-2.935,2.936Zm358.247-.009,2.935-2.936,2.936,2.936-2.936,2.936Zm-103,0,2.936-2.936,2.935,2.936-2.935,2.936Zm-103,0,2.935-2.936,2.936,2.936-2.936,2.936Zm-103,0,2.936-2.936,2.935,2.936-2.935,2.936Zm317.664-7.406,6.338-6.338-12.061-12.055-12.055,12.055,6.331,6.338-3.945,3.944-10.274-10.282L-1019.885-878l19.935,19.936-10.26,10.282Zm-103,0,6.338-6.338-12.062-12.055-12.054,12.055,6.331,6.338-3.944,3.944-10.275-10.282L-1122.885-878l19.936,19.936-10.261,10.282Zm-103,0,6.338-6.338-12.061-12.055-12.054,12.055,6.331,6.338-3.945,3.944-10.274-10.282L-1225.885-878l19.935,19.936-10.26,10.282Zm-103,0,6.338-6.338-12.061-12.055-12.055,12.055,6.331,6.338-3.944,3.944-10.275-10.282L-1328.884-878l19.935,19.936-10.261,10.282Zm300.335-7.234,2.936-2.936,2.936,2.936-2.936,2.935Zm-103,0,2.936-2.936,2.935,2.936-2.935,2.935Zm-103,0,2.935-2.936,2.936,2.936-2.936,2.935Zm-103,0,2.936-2.936,2.935,2.936-2.935,2.935Zm-69-20.074,10.267-10.289,3.945,3.944-6.339,6.338,12.062,12.055,12.047-12.047-6.331-6.338,3.945-3.944,10.274,10.282-19.935,19.936Zm412,0,10.268-10.289,3.944,3.944-6.338,6.338,12.062,12.055,12.047-12.047-6.331-6.338,3.944-3.944,10.275,10.282L-968.884-859.1Zm-103,0,10.267-10.289,3.945,3.944-6.338,6.338,12.061,12.055,12.047-12.047-6.332-6.338,3.945-3.944,10.274,10.282-19.935,19.935Zm-103,0,10.268-10.289,3.944,3.944-6.338,6.338,12.062,12.055,12.047-12.047-6.331-6.338,3.944-3.944,10.275,10.282-19.935,19.935Zm-103,0,10.268-10.289,3.944,3.944-6.338,6.338,12.061,12.055,12.047-12.047-6.331-6.338,3.944-3.944,10.275,10.282-19.936,19.935Zm353.133,9.377,2.936-2.936,2.935,2.936-2.935,2.936Zm-54,0,2.936-2.936,2.936,2.936-2.936,2.936Zm-49,0,2.935-2.936,2.936,2.936-2.936,2.936Zm-54,0,2.935-2.936,2.936,2.936-2.936,2.936Zm-49,0,2.936-2.936,2.936,2.936-2.936,2.936Zm-54,0,2.936-2.936,2.936,2.936-2.936,2.936Zm-49,0,2.936-2.936,2.935,2.936-2.935,2.936Zm-54,0,2.936-2.936,2.935,2.936-2.935,2.936Zm-49,0,2.935-2.935,2.936,2.935-2.936,2.936Zm-54,0,2.935-2.935,2.936,2.935-2.936,2.936Zm457.342-22.649,19.936-19.935,10.282,10.274-3.944,3.945-6.338-6.332L-945.463-892.3l12.055,12.061,6.338-6.338,3.944,3.945-10.282,10.274Zm-61.933,9.674,3.945-3.944,6.338,6.331L-992.94-892.3l-12.054-12.062-6.338,6.338-3.945-3.944,10.283-10.274,19.935,19.949-19.935,19.935Zm-41.067-9.674,19.935-19.935,10.283,10.274-3.945,3.945-6.338-6.332-12.054,12.055,12.054,12.061,6.338-6.338,3.945,3.945-10.283,10.274Zm-61.933,9.674,3.944-3.944,6.338,6.331,12.055-12.054-12.055-12.062-6.338,6.338-3.944-3.944,10.282-10.274,19.935,19.949-19.935,19.935Zm-41.068-9.674,19.936-19.935,10.281,10.274-3.944,3.945-6.338-6.332-12.055,12.055,12.055,12.061,6.338-6.338,3.944,3.945-10.281,10.274Zm-61.933,9.674,3.945-3.944,6.338,6.331,12.054-12.054-12.054-12.062-6.338,6.338-3.945-3.944,10.282-10.274,19.935,19.949-19.935,19.935Zm-41.067-9.674,19.935-19.935,10.282,10.274-3.945,3.945-6.338-6.332-12.054,12.055,12.054,12.061,6.338-6.338,3.945,3.945-10.282,10.274Zm-61.933,9.674,3.944-3.944,6.338,6.331,12.055-12.054-12.055-12.062-6.338,6.338-3.944-3.944,10.282-10.274,19.936,19.949-19.936,19.935Zm-41.068-9.674,19.936-19.935,10.282,10.274-3.944,3.945-6.338-6.332-12.055,12.055,12.055,12.061,6.338-6.338,3.944,3.945-10.282,10.274Zm-61.933,9.674,3.945-3.944,6.338,6.331,12.054-12.054-12.054-12.062-6.338,6.338-3.945-3.944,10.282-10.274,19.935,19.949-19.935,19.935Zm455.459,4.49,2.935-2.935,2.936,2.935-2.936,2.936Zm-103,0,2.936-2.935,2.935,2.935-2.935,2.936Zm-103,0,2.935-2.935,2.936,2.935-2.936,2.936Zm-103,0,2.936-2.935,2.935,2.935-2.935,2.936Zm-103,0,2.935-2.936,2.936,2.936-2.936,2.935Zm446.574-14.147,2.936-2.935,2.936,2.935-2.936,2.936Zm-103,0,2.936-2.935,2.935,2.935-2.935,2.936Zm-103,0,2.935-2.935,2.936,2.935-2.936,2.936Zm-103,0,2.936-2.935,2.935,2.935-2.935,2.936Zm-103,0,2.935-2.935,2.936,2.935-2.936,2.936Zm428.476-.023,2.936-2.936v5.872Zm-86.262,0,2.935-2.935,2.936,2.935-2.936,2.936Zm-13.918,2.82-.116.116v-.232l-2.7-2.7,2.7-2.7v-.232l.116.116.116-.116v.232l2.7,2.7-2.7,2.7v.232Zm-89.082-2.82,2.936-2.935,2.935,2.935-2.935,2.936Zm-13.918,2.819-.117.117v-.233l-2.7-2.7,2.7-2.7v-.233l.117.117.117-.117v.233l2.7,2.7-2.7,2.7v.233Zm-89.082-2.819,2.935-2.935,2.936,2.935-2.936,2.936Zm-13.918,2.819-.117.117v-.233l-2.7-2.7,2.7-2.7v-.233l.117.117.117-.117v.233l2.7,2.7-2.7,2.7v.233Zm-89.082-2.819,2.936-2.935,2.935,2.935-2.935,2.936Zm-13.918,2.82-.116.116v-.232l-2.7-2.7,2.7-2.7v-.232l.116.116.116-.116v.232l2.7,2.7-2.7,2.7v.232Zm-89.082-2.82,2.935-2.936,2.936,2.936-2.936,2.936Zm-14.035,0v-2.936l2.936,2.936-2.936,2.936Zm461.246-.009,2.936-2.936,2.935,2.936-2.935,2.935Zm-103,0,2.935-2.936,2.936,2.936-2.936,2.935Zm-103,0,2.936-2.936,2.936,2.936-2.936,2.935Zm-103,0,2.935-2.936,2.936,2.936-2.936,2.935Zm-103,0,2.936-2.936,2.936,2.936-2.936,2.935Zm420.665-7.407,6.338-6.338-12.062-12.054-12.054,12.054,6.331,6.338-3.944,3.945-10.275-10.283L-968.884-926l19.935,19.935-10.261,10.283Zm-103,0,6.338-6.338-12.061-12.054-12.054,12.054,6.331,6.338-3.945,3.945-10.274-10.283L-1071.885-926l19.935,19.935-10.26,10.283Zm-103,0,6.338-6.338-12.061-12.054-12.055,12.054,6.331,6.338-3.944,3.945-10.275-10.283L-1174.884-926l19.935,19.935-10.261,10.283Zm-103,0,6.337-6.338-12.061-12.054-12.054,12.054,6.331,6.338-3.945,3.945-10.274-10.283L-1277.885-926l19.936,19.935-10.261,10.283Zm-103,0,6.338-6.338-12.061-12.054-12.055,12.054,6.331,6.338-3.944,3.945-10.274-10.283L-1380.884-926l19.935,19.935-10.261,10.283Zm403.336-7.233,2.936-2.936,2.935,2.936-2.935,2.935Zm-103,0,2.935-2.936,2.936,2.936-2.936,2.935Zm-103,0,2.936-2.936,2.935,2.936-2.935,2.935Zm-103,0,2.935-2.936,2.936,2.936-2.936,2.935Zm-103,0,2.936-2.936,2.936,2.936-2.936,2.935Zm344-19.074,10.267-10.289,3.945,3.944-6.338,6.338,12.061,12.055,12.047-12.047-6.331-6.338,3.945-3.944,10.274,10.282-19.935,19.935Zm-103,0,10.268-10.289,3.944,3.944-6.338,6.338,12.061,12.055,12.047-12.047-6.331-6.338,3.944-3.944,10.275,10.282-19.936,19.935Zm-103,0,10.267-10.289,3.945,3.944-6.338,6.338,12.061,12.055,12.047-12.047-6.331-6.338,3.945-3.944,10.274,10.282-19.935,19.935Zm-103,0,10.268-10.289,3.944,3.944-6.338,6.338,12.062,12.055,12.047-12.047-6.331-6.338,3.944-3.944,10.275,10.282-19.935,19.935Zm353.134,9.377,2.935-2.936,2.936,2.936-2.936,2.935Zm-54,0,2.935-2.936,2.936,2.936-2.936,2.935Zm-49,0,2.936-2.936,2.935,2.936-2.935,2.935Zm-54,0,2.936-2.936,2.935,2.936-2.935,2.935Zm-49,0,2.935-2.936,2.936,2.936-2.936,2.935Zm-54,0,2.935-2.936,2.936,2.936-2.936,2.935Zm-49,0,2.936-2.936,2.936,2.936-2.936,2.935Zm-54,0,2.936-2.936,2.936,2.936-2.936,2.935Zm354.344-22.649,19.935-19.936,10.282,10.275-3.944,3.944-6.338-6.331L-996.462-939.3l12.054,12.061,6.338-6.338,3.944,3.944-10.282,10.275Zm-61.933,9.674,3.944-3.944,6.338,6.331,12.054-12.054-12.054-12.062-6.338,6.338-3.944-3.944,10.281-10.275,19.935,19.95-19.935,19.935Zm-41.068-9.674,19.935-19.936,10.282,10.275-3.944,3.944-6.339-6.331-12.054,12.055,12.054,12.061,6.339-6.338,3.944,3.944-10.282,10.275Zm-61.933,9.674,3.945-3.944,6.337,6.331,12.055-12.054-12.055-12.062-6.337,6.338-3.945-3.944,10.282-10.275,19.936,19.95-19.936,19.935Zm-41.067-9.674,19.935-19.936,10.282,10.275-3.944,3.944-6.338-6.331-12.054,12.055,12.054,12.061,6.338-6.338,3.944,3.944-10.282,10.275Zm-61.933,9.674,3.944-3.944,6.338,6.331,12.054-12.054-12.054-12.062-6.338,6.338-3.944-3.944,10.282-10.275,19.935,19.95-19.935,19.935Zm-41.068-9.674,19.936-19.936,10.282,10.275-3.944,3.944-6.338-6.331-12.055,12.055,12.055,12.061,6.338-6.338,3.944,3.944-10.282,10.275Zm-61.933,9.674,3.945-3.944,6.338,6.331,12.054-12.054-12.054-12.062-6.338,6.338-3.945-3.944,10.282-10.275,19.935,19.95-19.935,19.935Zm352.459,4.49,2.935-2.935,2.936,2.935-2.936,2.936Zm-103,0,2.936-2.935,2.936,2.935-2.936,2.936Zm-103,0,2.936-2.935,2.935,2.935-2.935,2.936Zm-103,0,2.935-2.935,2.936,2.935-2.936,2.936Zm343.574-14.146,2.935-2.935,2.936,2.935-2.936,2.936Zm-103,0,2.936-2.935,2.936,2.935-2.936,2.936Zm-103,0,2.935-2.935,2.936,2.935-2.936,2.936Zm-103,0,2.936-2.935,2.936,2.935-2.936,2.936Zm239.214-.022,2.935-2.936,2.936,2.936-2.936,2.936Zm-103,0,2.936-2.936,2.936,2.936-2.936,2.936Zm-103,0,2.936-2.936,2.935,2.936-2.935,2.936Zm292.263,0,2.935-2.936v5.871Zm-100.181,2.818-.117.117v-.233l-2.7-2.7,2.7-2.7v-.233l.117.117.116-.117v.233l2.7,2.7-2.7,2.7v.233Zm-103,0-.116.116v-.232l-2.7-2.7,2.7-2.7v-.232l.116.116.116-.116v.232l2.7,2.7-2.7,2.7v.232Zm-103,0-.117.117v-.233l-2.7-2.7,2.7-2.7v-.233l.117.117.116-.117v.233l2.7,2.7-2.7,2.7v.233Zm-89.082-2.818,2.935-2.936,2.936,2.936-2.936,2.935Zm-14.035,0v-2.936l2.935,2.936-2.935,2.935Zm358.247-.01,2.935-2.935,2.936,2.935-2.936,2.936Zm-103,0,2.936-2.935,2.935,2.935-2.935,2.936Zm-103,0,2.935-2.935,2.936,2.935-2.936,2.936Zm-103,0,2.936-2.935,2.935,2.935-2.935,2.936Zm317.664-7.406,6.338-6.338-12.061-12.054-12.055,12.054,6.331,6.338-3.945,3.945-10.274-10.283L-1019.885-973l19.935,19.935-10.26,10.283Zm-103,0,6.338-6.338-12.062-12.054-12.054,12.054,6.331,6.338-3.944,3.945-10.275-10.283L-1122.885-973l19.936,19.935-10.261,10.283Zm-103,0,6.338-6.338-12.061-12.054-12.054,12.054,6.331,6.338-3.945,3.945-10.274-10.283L-1225.885-973l19.935,19.935-10.26,10.283Zm-103,0,6.338-6.338-12.061-12.054-12.055,12.054,6.331,6.338-3.944,3.945-10.275-10.283L-1328.884-973l19.935,19.935-10.261,10.283Zm300.335-7.234,2.936-2.935,2.936,2.935-2.936,2.936Zm-103,0,2.936-2.935,2.935,2.935-2.935,2.936Zm-103,0,2.935-2.935,2.936,2.935-2.936,2.936Zm-103,0,2.936-2.935,2.935,2.935-2.935,2.936Z" transform="translate(1433.065 973)" fill="#fff"/>
</svg>
