<svg xmlns="http://www.w3.org/2000/svg" width="777.001" height="407.999" viewBox="0 0 777.001 407.999">
  <g id="undraw_my_files_swob" transform="translate(0 0)">
    <path id="Path_222" data-name="Path 222" d="M986.85,543.4c-4.07,25.87-16.68,50.98-37.49,66.87-20.48,15.65-46.72,21.21-72.05,25.99q-45.57,8.61-91.39,15.74-6.5,1.035-13,2H595c-.18-.24-.37-.49-.55-.74-.29-.42-.58-.84-.86-1.26-.16-.24-.32-.49-.48-.74h111.6a11.961,11.961,0,0,0,11.95-11.94V490.359c.72-2.26,1.39-4.53,2-6.83a180.058,180.058,0,0,0,5.53-32.71c.6-7.7.78-15.4.65-23.11-.37-21.19-3.14-42.38-6.15-63.42-.22-1.55-.45-3.11-.67-4.66-2.12-14.62-4.05-30.53,3.32-43.34,8.43-14.66,27.14-20.77,43.99-19.27,30.31,2.71,55.84,25.92,69.11,53.31s16.23,58.52,17.44,88.92c.64,16.12.57,32.96-1.68,49.13q11.4-26.07,22.82-52.14c4.06-9.27,8.33-18.84,15.85-25.62,15.72-14.19,41.72-11.33,58.51,1.59s25.98,33.36,32.1,53.63C987.06,490.909,990.93,517.529,986.85,543.4Z" transform="translate(-211.5 -246.001)" fill="#f2f2f2"/>
    <path id="Path_223" data-name="Path 223" d="M919.8,402.887c10.992,19.468,16.035,41.792,15.915,64.07a155.087,155.087,0,0,1-14.332,63.929,160.607,160.607,0,0,1-34.467,48.3,146.332,146.332,0,0,1-49.531,31.64,129.436,129.436,0,0,1-67.211,6.387q-4.7-.808-9.339-1.96c-1.874-.462-2.674,2.43-.8,2.893a132.777,132.777,0,0,0,71.242-2.049,146.775,146.775,0,0,0,52.183-29.686A162.908,162.908,0,0,0,920.887,538.7a159.5,159.5,0,0,0,17.575-63.863c1.31-22.612-2.48-45.626-12.259-66.138q-1.777-3.728-3.814-7.323a1.5,1.5,0,0,0-2.59,1.514Z" transform="translate(-211.5 -246.001)" fill="#fff"/>
    <path id="Path_224" data-name="Path 224" d="M760.588,296.623a325.347,325.347,0,0,1,28.3,70.983,342.833,342.833,0,0,1,5.832,151.56,324.112,324.112,0,0,1-22.789,72.984c-10.419,23.147-25.42,47.536-51.042,55.641a53.441,53.441,0,0,1-8.86,1.98c-1.9.261-1.094,3.152.8,2.893,26.5-3.638,44.922-25.657,56.472-48.1,11.951-23.225,20.461-48.446,26.12-73.909a345.525,345.525,0,0,0-1.18-154.121,330.418,330.418,0,0,0-26.529-72.8q-2.2-4.347-4.53-8.625c-.923-1.7-3.514-.184-2.59,1.514Z" transform="translate(-211.5 -246.001)" fill="#fff"/>
    <path id="Path_225" data-name="Path 225" d="M635.14,292.259H455.54a13.768,13.768,0,0,0-13.75,13.75V396h27.64a11.879,11.879,0,0,1,10.11,5.59l9.58,15.25,9.16,14.57,1.72,2.74,10.48,16.67.12.19H648.89v-145a13.768,13.768,0,0,0-13.75-13.75Z" transform="translate(-211.5 -246.001)" fill="#ccc"/>
    <path id="Path_226" data-name="Path 226" d="M563.95,319.769H474.96a8.9,8.9,0,0,0,0,17.79h88.99a8.895,8.895,0,1,0,0-17.79Z" transform="translate(-211.5 -246.001)" fill="#fff"/>
    <path id="Path_227" data-name="Path 227" d="M613.3,363.449H475.77a9.71,9.71,0,1,0,0,19.42H613.3a9.71,9.71,0,0,0,0-19.42Z" transform="translate(-211.5 -246.001)" fill="#fff"/>
    <path id="Path_228" data-name="Path 228" d="M622.08,403.019a9.7,9.7,0,0,0-8.78-5.59H475.77c-.21,0-.41.01-.62.02a11.914,11.914,0,0,1,4.39,4.14l9.58,15.25H613.3a9.7,9.7,0,0,0,8.78-13.82Z" transform="translate(-211.5 -246.001)" fill="#fff"/>
    <path id="Path_229" data-name="Path 229" d="M622.91,439.809a9.709,9.709,0,0,0-9.61-8.4H498.28l1.72,2.74,10.48,16.67H613.3a9.6,9.6,0,0,0,5.63-1.81,9.7,9.7,0,0,0,4.07-7.9,9.235,9.235,0,0,0-.089-1.3Z" transform="translate(-211.5 -246.001)" fill="#fff"/>
    <path id="Path_230" data-name="Path 230" d="M732.69,369.759l-14-5.47-69.8-27.24-83.51-32.59a13.774,13.774,0,0,0-17.81,7.82l-2.92,7.49-6.95,17.79-10.1,25.89-7.58,19.42-5.68,14.56-7.58,19.41-5.69,14.57-.16.42-.91,2.32,10.48,16.67.12.19H704.71a11.916,11.916,0,0,1,9.29,4.44l.82-2.08,10.02-25.66,15.66-40.13a13.777,13.777,0,0,0-7.81-17.82Z" transform="translate(-211.5 -246.001)" fill="#f90"/>
    <path id="Path_231" data-name="Path 231" d="M656.37,369.5l-7.48-2.92-75.42-29.43a8.9,8.9,0,1,0-6.47,16.58l24.91,9.72,30.81,12.02,26.17,10.22,1.01.39a8.9,8.9,0,1,0,6.47-16.58Z" transform="translate(-211.5 -246.001)" fill="#fff"/>
    <path id="Path_232" data-name="Path 232" d="M686.45,428.139l-37.56-14.66-26.81-10.46-14.32-5.59-37.3-14.56-12.12-4.73a9.71,9.71,0,0,0-12.23,4.73c-.12.25-.24.51-.34.78a9.7,9.7,0,0,0,5.51,12.57l3.1,1.21,49.72,19.41,44.79,17.48,30.5,11.91a9.709,9.709,0,1,0,7.06-18.09Z" transform="translate(-211.5 -246.001)" fill="#fff"/>
    <path id="Path_233" data-name="Path 233" d="M648.89,449.949l-2.41-.94-23.57-9.2-21.53-8.4-37.34-14.57-18.06-7.05a9.708,9.708,0,1,0-7.05,18.09l9.04,3.53,45.1,17.6,4.64,1.81.48.19H651.6Z" transform="translate(-211.5 -246.001)" fill="#fff"/>
    <path id="Path_234" data-name="Path 234" d="M557.66,450.819l-4.64-1.81-19.39-7.57a9.695,9.695,0,0,0-13.12,7.57,9.2,9.2,0,0,0-.11,1.81,1.111,1.111,0,0,0,.01.19h37.74Z" transform="translate(-211.5 -246.001)" fill="#fff"/>
    <path id="Path_235" data-name="Path 235" d="M597.71,450.819l-4.64-1.81H520.509a9.2,9.2,0,0,0-.11,1.81h-9.92l.12.19h87.59Zm0,0H510.48l.12.19h87.59Zm0,0H510.48l.12.19h87.59Zm.48.19-.48-.19H510.48l.12.19ZM423.18,651.259a11.958,11.958,0,0,1-11.94-11.94V407.949A11.96,11.96,0,0,1,423.18,396h18.61v-2H423.18a13.966,13.966,0,0,0-13.94,13.95v231.37A13.95,13.95,0,0,0,417.41,652H593.589c-.16-.24-.32-.49-.48-.74Zm291.64-197.89a13.877,13.877,0,0,0-10.11-4.36h-193l-10.8-17.18-.26-.42-9.16-14.57-10.26-16.32a13.976,13.976,0,0,0-11.8-6.52H423.18a13.966,13.966,0,0,0-13.94,13.95v231.37A13.95,13.95,0,0,0,417.41,652a13.751,13.751,0,0,0,5.77,1.26H704.71a13.8,13.8,0,0,0,5.78-1.26,13.951,13.951,0,0,0,8.17-12.68V462.959a13.87,13.87,0,0,0-3.841-9.59Zm1.84,185.95a11.961,11.961,0,0,1-11.95,11.94H423.18a11.958,11.958,0,0,1-11.94-11.94V407.949A11.96,11.96,0,0,1,423.18,396h46.25a11.879,11.879,0,0,1,10.11,5.59l9.58,15.25,9.16,14.57,1.72,2.74,10.48,16.67.12.19H704.71a11.96,11.96,0,0,1,11.95,11.95Zm-118.95-188.5H510.48l.12.19h87.59Zm0,0H510.48l.12.19h87.59Zm0,0H510.48l.12.19h87.59Zm0,0-4.64-1.81H511.71l-10.8-17.18-.91,2.32,10.48,16.67.12.19h87.59Z" transform="translate(-211.5 -246.001)" fill="#3f3d56"/>
    <path id="Path_236" data-name="Path 236" d="M156.928,287.77,151.2,299.746l-48.917-16.394,8.453-17.675Z" fill="#ffb8b8"/>
    <path id="Path_237" data-name="Path 237" d="M358.53,543.8h26.834v16.12H343.643v-1.233A14.887,14.887,0,0,1,358.53,543.8Z" transform="matrix(0.431, -0.902, 0.902, 0.431, -502.122, 396.571)" fill="#2f2e41"/>
    <path id="Path_238" data-name="Path 238" d="M168.459,394.715l-13.267-.448-.559-51.644,15.553.918Z" fill="#ffb8b8"/>
    <path id="Path_239" data-name="Path 239" d="M355.835,636.313h26.834v16.12H340.948V651.2a14.887,14.887,0,0,1,14.887-14.887Z" transform="translate(-189.558 -257.839) rotate(1.933)" fill="#2f2e41"/>
    <path id="Path_240" data-name="Path 240" d="M401.324,424.579s-40.605-10.287-59.013,4.873l-10.287,29.777L290.878,517.7l59.554,35.732,10.828-27.07-25.987-12.994,31.4-27.07-5.414,142.93,20.573,3.248S427.311,455.981,401.324,424.579Z" transform="translate(-211.5 -246.001)" fill="#2f2e41"/>
    <path id="Path_241" data-name="Path 241" d="M339.721,433.856l.495-.88c5.217-9.275,4.372-24.378,2.744-35.414-1.363-9.244-1.322-25.535-1.048-37.573a17.891,17.891,0,0,1,14.261-17.221c12.353-2.571,27.517-3.115,35.457-3.211l.007.541-.007-.541a8.245,8.245,0,0,1,8.275,8.043c.242,12.964.167,36.6-3.051,49.289-4.775,18.825,2.692,31.618,2.768,31.745l.45.753Z" transform="translate(-211.5 -246.001)" fill="#f90"/>
    <path id="Path_242" data-name="Path 242" d="M318.834,485.774a10.025,10.025,0,0,0,3.81-14.892l22.916-98.818H328.235l-20.224,96.87a10.079,10.079,0,0,0,10.823,16.84Z" transform="translate(-211.5 -246.001)" fill="#ffb8b8"/>
    <path id="Path_243" data-name="Path 243" d="M458.171,388.5l-38.242-36.175L409.593,366.8l25.84,22.739-33.887,26.91c-.245-.017-.489-.037-.738-.037a10.853,10.853,0,1,0,10.746,12.3l.107.107Z" transform="translate(-211.5 -246.001)" fill="#ffb8b8"/>
    <path id="Path_244" data-name="Path 244" d="M353.74,344.038s-23.881-3.917-26.047,14.491-3.248,18.408-3.248,18.408,17.325-3.248,21.656,1.083S353.74,344.038,353.74,344.038Z" transform="translate(-211.5 -246.001)" fill="#f90"/>
    <path id="Path_245" data-name="Path 245" d="M389.413,341.2s19.49-3.248,28.153,5.414,12.994,10.828,12.994,10.828-19.49,10.828-11.911,20.573c0,0-20.573-9.745-23.822-6.5S389.413,341.2,389.413,341.2Z" transform="translate(-211.5 -246.001)" fill="#f90"/>
    <path id="Path_246" data-name="Path 246" d="M372.318,278.339c-6.148-4.91-7.763-14.386-4.2-21.4s11.632-11.238,19.493-10.923,15.27,4.829,19.824,11.245c6.4,9.012,7.741,21.538,16.248,28.594,7.684,6.373,18.691,6.19,28.661,5.683,3.361-.171,6.83-.369,9.846-1.862s5.479-4.642,5.091-7.985c2.5,3.965,1.052,9.524-2.309,12.8s-8.145,4.642-12.8,5.188a47.569,47.569,0,0,1-43.151-18.933c-3.469-4.785-6.146-10.358-10.906-13.862s-12.7-3.748-15.619,1.39c-1.445,2.541-1.3,5.728-2.632,8.332s-5.645,4.008-6.925,1.379" transform="translate(-211.5 -246.001)" fill="#2f2e41"/>
    <circle id="Ellipse_51" data-name="Ellipse 51" cx="30" cy="30" r="30" transform="translate(129.879 24.556)" fill="#2f2e41"/>
    <circle id="Ellipse_52" data-name="Ellipse 52" cx="24.561" cy="24.561" r="24.561" transform="translate(135.137 37.782)" fill="#ffb8b8"/>
    <path id="Path_247" data-name="Path 247" d="M348.8,290.3c3.338.73,2.246,6.33,4.883,8.5,2.379,1.959,5.806-.056,8.8-.785,3.781-.921,7.738.428,11.229,2.148s6.857,3.854,10.664,4.655,8.322-.1,10.457-3.355c2.041-3.111,1.29-7.306-.307-10.667a24.77,24.77,0,0,0-44.442-.616" transform="translate(-211.5 -246.001)" fill="#2f2e41"/>
    <path id="Path_248" data-name="Path 248" d="M927.5,653a1,1,0,0,1-1,1h-714a1,1,0,0,1,0-2h714a1,1,0,0,1,1,1Z" transform="translate(-211.5 -246.001)" fill="#3f3d56"/>
  </g>
</svg>
