<?xml version="1.0" standalone="no"?>
<!DOCTYPE svg PUBLIC "-//W3C//DTD SVG 20010904//EN"
 "http://www.w3.org/TR/2001/REC-SVG-20010904/DTD/svg10.dtd">
<svg version="1.0" xmlns="http://www.w3.org/2000/svg"
 width="105.000000pt" height="105.000000pt" viewBox="0 0 105.000000 105.000000"
 preserveAspectRatio="xMidYMid meet">
<metadata>
Created by potrace 1.14, written by Peter Selinger 2001-2017
</metadata>
<g transform="translate(0.000000,105.000000) scale(0.100000,-0.100000)"
fill="#000000" stroke="none">
<path d="M692 809 c-51 -25 -77 -49 -102 -96 -27 -52 -31 -72 -35 -164 -10
-191 80 -309 234 -309 119 0 208 67 224 168 l5 32 -57 0 c-57 0 -58 -1 -67
-31 -12 -43 -51 -70 -102 -71 -88 -1 -121 57 -118 207 3 136 34 186 118 187
49 1 89 -27 102 -71 9 -30 10 -31 67 -31 33 0 59 4 59 8 0 34 -37 106 -70 136
-64 58 -178 73 -258 35z"/>
<path d="M50 535 l0 -285 110 0 c130 0 189 16 242 68 54 51 78 109 81 195 6
137 -38 228 -135 276 -52 27 -66 29 -177 30 l-121 2 0 -286z m247 171 c47 -24
67 -77 67 -171 0 -132 -42 -187 -146 -190 l-48 -2 -1 131 c0 72 -1 157 -2 189
-1 31 3 59 8 60 22 8 94 -2 122 -17z"/>
</g>
</svg>
